<svg xmlns="http://www.w3.org/2000/svg" viewBox="0 0 20.77 24.76"><defs><style>.cls-1{fill:#deaf59;}</style></defs><title>Zasób 5</title><g id="Warstwa_2" data-name="Warstwa 2"><g id="Warstwa_1-2" data-name="Warstwa 1"><g id="_grupa_" data-name="&lt;grupa&gt;"><g id="_grupa_2" data-name="&lt;grupa&gt;"><path id="_ścieżka_złożona_" data-name="&lt;ścieżka złożona&gt;" class="cls-1" d="M15.19,2.44A5.39,5.39,0,0,0,9.62,7.63a5.17,5.17,0,0,0,3.07,4.64h0V22.39l2.5,2.37,2.45-2.25-1.55-1.85,1.55-1.33L16,17.6l1.68-1.49L16,14.43l1.68-1V12.29a5.17,5.17,0,0,0,3.13-4.66A5.39,5.39,0,0,0,15.19,2.44Zm0,5.48a1.69,1.69,0,0,1-1.75-1.63,1.75,1.75,0,0,1,3.5,0A1.69,1.69,0,0,1,15.19,7.92Z"/><g id="_grupa_3" data-name="&lt;grupa&gt;"><path id="_ścieżka_" data-name="&lt;ścieżka&gt;" class="cls-1" d="M3.33,8a.81.81,0,0,1-.84-.78A7.05,7.05,0,0,1,9.37,0a6.78,6.78,0,0,1,6.47,5.32.78.78,0,0,1-.61.94.84.84,0,0,1-1-.57A5.17,5.17,0,0,0,9.37,1.56,5.44,5.44,0,0,0,4.16,7.2.81.81,0,0,1,3.33,8Z"/></g><rect id="_Prostokąt_" data-name="&lt;Prostokąt&gt;" class="cls-1" y="7.2" width="6.65" height="9.6" rx="2.35" ry="2.35"/></g></g></g></g></svg>