<svg xmlns="http://www.w3.org/2000/svg" viewBox="0 0 20.09 20.1"><defs><style>.cls-1{fill:#deaf59;}</style></defs><title>Zasób 2</title><g id="Warstwa_2" data-name="Warstwa 2"><g id="Warstwa_1-2" data-name="Warstwa 1"><path class="cls-1" d="M7.74,20.1h4.6a.28.28,0,0,0,.28-.28v-6.9a.28.28,0,0,1,.28-.28h6.9a.28.28,0,0,0,.28-.28V7.74a.28.28,0,0,0-.28-.28h-6.9a.28.28,0,0,1-.28-.28V.28A.28.28,0,0,0,12.34,0H7.74a.28.28,0,0,0-.28.28v6.9a.28.28,0,0,1-.28.28H.28A.28.28,0,0,0,0,7.74v4.62a.28.28,0,0,0,.28.28h6.9a.28.28,0,0,1,.28.28v6.9A.28.28,0,0,0,7.74,20.1Z"/></g></g></svg>