<svg xmlns="http://www.w3.org/2000/svg" viewBox="0 0 10.35 10.35"><defs><style>.cls-1{fill:#deaf59;stroke:#333;stroke-miterlimit:10;stroke-width:0.35px;}</style></defs><title>Zasób 3</title><g id="Warstwa_2" data-name="Warstwa 2"><g id="Warstwa_1-2" data-name="Warstwa 1"><path class="cls-1" d="M4.11,10.18H6.24a.23.23,0,0,0,.23-.23V6.69a.23.23,0,0,1,.23-.23H9.95a.23.23,0,0,0,.23-.23V4.11a.23.23,0,0,0-.23-.23H6.69a.23.23,0,0,1-.23-.23V.4A.23.23,0,0,0,6.24.17H4.11A.23.23,0,0,0,3.89.4V3.66a.23.23,0,0,1-.23.23H.4a.23.23,0,0,0-.23.23V6.24a.23.23,0,0,0,.23.23H3.66a.23.23,0,0,1,.23.23V9.95A.23.23,0,0,0,4.11,10.18Z"/></g></g></svg>