<svg xmlns="http://www.w3.org/2000/svg" viewBox="0 0 26.26 20.65"><defs><style>.cls-1{fill:#deaf59;}</style></defs><title>Zasób 4</title><g id="Warstwa_2" data-name="Warstwa 2"><g id="Warstwa_1-2" data-name="Warstwa 1"><path class="cls-1" d="M9.38,3.75v1.1h7.47V3.75Zm15,0H17.59V5.6H8.66V3.75H1.82A1.85,1.85,0,0,0,0,5.63V18.77a1.85,1.85,0,0,0,1.82,1.89H24.44a1.85,1.85,0,0,0,1.82-1.89V5.63A1.87,1.87,0,0,0,24.43,3.75Zm-18,4.78a1.83,1.83,0,1,1-1.77,1.83A1.8,1.8,0,0,1,6.44,8.52ZM9.2,18H3.67V15.89A2.82,2.82,0,0,1,6.44,13a2.73,2.73,0,0,1,2,.84,2.9,2.9,0,0,1,.81,2V18Zm8.28,0H12v-.72h5.45Zm5.44-2.38H12v-.72h10.9Zm0-2.37H12v-.72h10.9Zm0-2.81H12V8.15h10.9Z"/><path class="cls-1" d="M16.85,2V4.84H9.38V2h2.69a1,1,0,1,0,2.09,0Z"/><path class="cls-1" d="M13.12,0a2,2,0,0,0-1.93,2,2,2,0,0,0,1,1.75,1.81,1.81,0,0,0,.92.24A1.92,1.92,0,0,0,14,3.75,2,2,0,0,0,15,2,2,2,0,0,0,13.12,0Zm0,3.06a1.06,1.06,0,0,1-1-1.08,1,1,0,1,1,2.09,0A1.08,1.08,0,0,1,13.12,3.06Z"/></g></g></svg>