<svg xmlns="http://www.w3.org/2000/svg" viewBox="0 0 9.06 9.06"><defs><style>.cls-1{fill:#deaf59;stroke:#333;stroke-miterlimit:10;stroke-width:0.35px;}</style></defs><title>Zasób 4</title><g id="Warstwa_2" data-name="Warstwa 2"><g id="Warstwa_1-2" data-name="Warstwa 1"><path class="cls-1" d="M.24,7.31l1.5,1.5a.23.23,0,0,0,.32,0L4.37,6.51a.23.23,0,0,1,.32,0L7,8.82a.23.23,0,0,0,.32,0l1.5-1.5a.23.23,0,0,0,0-.32L6.51,4.69a.23.23,0,0,1,0-.32L8.81,2.06a.23.23,0,0,0,0-.32L7.31.24A.23.23,0,0,0,7,.24L4.69,2.55a.23.23,0,0,1-.32,0L2.06.24a.23.23,0,0,0-.32,0L.24,1.74a.23.23,0,0,0,0,.32L2.55,4.37a.23.23,0,0,1,0,.32L.24,7A.23.23,0,0,0,.24,7.31Z"/></g></g></svg>